<?xml version="1.0" encoding="iso-8859-1"?>
<!-- Generator: Adobe Illustrator 19.0.0, SVG Export Plug-In . SVG Version: 6.00 Build 0)  -->
<svg version="1.1" id="Capa_1" xmlns="http://www.w3.org/2000/svg" xmlns:xlink="http://www.w3.org/1999/xlink" x="0px" y="0px"
	 viewBox="0 0 512 512" style="enable-background:new 0 0 512 512;" xml:space="preserve">
<circle style="fill:#569FDB;" cx="256" cy="256" r="256"/>
<g>
	<path style="fill:#77BBE8;" d="M337.785,143.531h19.854c7.358,0,13.323-5.965,13.323-13.323s-5.965-13.323-13.323-13.323h-19.854
		c-7.358,0-13.323,5.965-13.323,13.323C324.462,137.566,330.427,143.531,337.785,143.531z"/>
	<path style="fill:#77BBE8;" d="M356.338,196.823h40.202h43.152c7.358,0,13.323,5.965,13.323,13.323s-5.965,13.323-13.323,13.323
		H418.99c-7.358,0-13.323,5.965-13.323,13.323s5.965,13.323,13.323,13.323h92.936c-1.107-49.063-16.02-94.713-41.002-133.23h-55.368
		c-7.358,0-13.323,5.965-13.323,13.323s5.965,13.323,13.323,13.323h5.611c7.358,0,13.323,5.965,13.323,13.323
		s-5.965,13.323-13.323,13.323H396.54h-40.202c-7.358,0-13.323,5.965-13.323,13.323C343.015,190.858,348.98,196.823,356.338,196.823
		z"/>
	<path style="fill:#77BBE8;" d="M65.938,427.49h44.465c7.358,0,13.323-5.965,13.323-13.323s-5.965-13.323-13.323-13.323H89.048
		c-7.358,0-13.323-5.965-13.323-13.323s5.965-13.323,13.323-13.323h38.354c7.358,0,13.323-5.965,13.323-13.323
		s-5.965-13.323-13.323-13.323H42.548c-7.358,0-13.323-5.965-13.323-13.323s5.965-13.323,13.323-13.323h46.854
		c7.358,0,13.323-5.965,13.323-13.323S96.76,294.26,89.402,294.26H2.848C10.467,345.101,33.035,391.048,65.938,427.49z"/>
</g>
<path style="fill:#E0E2E2;" d="M266.522,286.334c0,0,2.148-0.408,4.313-0.551l-0.996-26.244c-3.472,4.624-7.443,8.069-13.191,9.552
	c-0.573,0.148-1.16,0.222-1.748,0.222s-1.175-0.074-1.748-0.222c-5.547-1.432-9.389-4.676-12.841-9.057
	c-0.123-0.156-0.23-0.324-0.35-0.483l-1.497,13.957L266.522,286.334z"/>
<path style="fill:#CBD0D1;" d="M261.063,267.393c-1.355,0.703-2.81,1.284-4.414,1.698c-0.573,0.148-1.161,0.222-1.748,0.222
	s-1.175-0.074-1.747-0.222c-5.547-1.432-9.389-4.676-12.841-9.057c-0.123-0.156-0.23-0.324-0.35-0.483l-1.497,13.957l20.916,9.561
	L261.063,267.393z"/>
<ellipse transform="matrix(-0.1201 -0.9928 0.9928 -0.1201 53.4608 573.7878)" style="fill:#BFA993;" cx="281.01" cy="263.202" rx="28.191" ry="7.144"/>
<g>
	
		<ellipse transform="matrix(-0.1201 0.9928 -0.9928 -0.1201 516.9604 68.1407)" style="fill:#AA927D;" cx="228.283" cy="263.166" rx="28.191" ry="7.144"/>
	<ellipse style="fill:#AA927D;" cx="254.9" cy="231.84" rx="27.672" ry="29.05"/>
</g>
<path style="fill:#99806D;" d="M246.512,223.826c0-8.278,3.304-15.742,8.595-21.034c-0.069-0.001-0.137-0.006-0.207-0.006
	c-15.283,0-27.672,13.007-27.672,29.053c0,16.045,12.389,29.053,27.672,29.053c7.398,0,14.112-3.054,19.077-8.019
	C258.791,252.756,246.512,239.798,246.512,223.826z"/>
<path style="fill:#CBD0D1;" d="M224.734,215.337l1.282,3.77c0.168,0.494-0.163,1.017-0.682,1.076l-19.566,2.227
	c-0.379,0.043-0.499-0.495-0.138-0.617L224.734,215.337z"/>
<path style="fill:#E0E2E2;" d="M285.069,215.337l-1.282,3.77c-0.168,0.494,0.163,1.017,0.682,1.076l19.566,2.227
	c0.379,0.043,0.499-0.495,0.138-0.617L285.069,215.337z"/>
<path style="fill:#CBD0D1;" d="M261.702,200.529c-3.923-0.548-6.801-0.399-6.801-0.399s-2.879-0.15-6.804,0.399
	c-9.463,1.705-17.101,6.882-20.339,13.62c-0.869,2.314-1.699,4.726-1.381,8.134l1.704,2.916c0,0,2.914-20.445,26.82-20.445
	s26.819,20.445,26.819,20.445l1.704-2.916c0.7-2.947-0.512-5.819-1.381-8.133C278.806,207.411,271.167,202.234,261.702,200.529z"/>
<path style="fill:#FFFFFF;" d="M226.347,221.38c0-11.736,12.784-21.25,28.554-21.25s28.554,9.514,28.554,21.25
	c0,0.303-0.014,0.603-0.031,0.902c1.046-2.369,1.623-4.907,1.623-7.55c0-12.888-13.497-23.336-30.146-23.336
	s-30.146,10.448-30.146,23.336c0,2.643,0.576,5.181,1.622,7.55C226.361,221.983,226.347,221.683,226.347,221.38z"/>
<g>
	<path style="fill:#E0E2E2;" d="M254.379,162.414l-6.076,29.548l5.548,2.75c0.662,0.328,1.438,0.328,2.1,0l5.548-2.75l-6.075-29.548
		C255.307,161.846,254.495,161.846,254.379,162.414z"/>
	<path style="fill:#E0E2E2;" d="M269.433,194.285l2.869,5.16c0.376,0.676,1.28,0.832,1.861,0.321l21.915-19.294
		c0.424-0.373-0.048-1.041-0.541-0.765L269.433,194.285z"/>
	<path style="fill:#E0E2E2;" d="M281.721,204.035l1.048,5.811c0.137,0.761,0.943,1.201,1.657,0.905l26.973-11.179
		c0.522-0.216,0.291-1-0.265-0.899L281.721,204.035z"/>
</g>
<g>
	<path style="fill:#CBD0D1;" d="M240.369,194.285l-2.869,5.16c-0.376,0.676-1.28,0.832-1.861,0.321l-21.915-19.294
		c-0.424-0.373,0.048-1.041,0.541-0.765L240.369,194.285z"/>
	<path style="fill:#CBD0D1;" d="M228.082,204.035l-1.048,5.811c-0.137,0.761-0.943,1.201-1.657,0.905l-26.973-11.179
		c-0.522-0.216-0.291-1,0.265-0.899L228.082,204.035z"/>
</g>
<path style="fill:#FFFFFF;" d="M257.889,216.789l-0.917-0.802c-0.935-0.818-2.321-0.85-3.293-0.076l-1.392,1.109l0,0
	c-2.732,3.828-7.97,9.768-17.348,16.155c-0.706,0.481-1.139,1.277-1.139,2.131v9.849c0,2.242,0.29,4.419,0.835,6.495
	c0.545,2.076,1.345,4.053,2.363,5.893c0.679,1.227,1.455,2.393,2.318,3.488c3.452,4.381,8.29,7.625,13.837,9.057
	c0.573,0.148,1.16,0.222,1.748,0.222c0.587,0,1.175-0.074,1.748-0.222c6.24-1.611,11.584-5.515,15.065-10.752
	c0.387-0.582,0.751-1.18,1.09-1.793c0.679-1.227,1.26-2.514,1.735-3.851c0.947-2.674,1.464-5.548,1.464-8.537v-9.85
	c0-0.854-0.433-1.648-1.138-2.13c-9.121-6.229-14.009-12.033-16.525-15.867C258.212,217.113,258.064,216.942,257.889,216.789z"/>
<g>
	<path style="fill:#E0E2E2;" d="M251.934,261.031c-0.863-1.095-1.639-2.261-2.318-3.488c-1.018-1.84-1.818-3.816-2.363-5.893
		c-0.545-2.076-0.836-4.253-0.836-6.495v-8.511v-1.338v-7.783v-0.729v-2.969c-2.866,2.842-6.61,6.033-11.478,9.349
		c-0.706,0.481-1.139,1.277-1.139,2.131v9.849c0,2.242,0.291,4.419,0.836,6.495c0.544,2.077,1.345,4.053,2.363,5.893
		c0.679,1.227,1.456,2.393,2.318,3.488c3.452,4.381,8.29,7.625,13.837,9.057c0.573,0.148,1.16,0.222,1.747,0.222
		s1.175-0.074,1.748-0.222c1.589-0.41,3.119-0.973,4.576-1.665C257.588,266.699,254.402,264.163,251.934,261.031z"/>
	<path style="fill:#E0E2E2;" d="M386.647,383.086l0.023,0.4c0.118,2.038-1.452,3.802-3.49,3.921l-16.329,0.949
		c-2.038,0.118-3.802-1.452-3.921-3.49l-0.023-0.4c-0.118-2.038,1.452-3.802,3.49-3.921l16.329-0.949
		C384.764,379.478,386.529,381.048,386.647,383.086z"/>
</g>
<path style="fill:#CBD0D1;" d="M256,512c17.007,0,33.622-1.675,49.702-4.839V302.063L226.428,510.29
	C236.132,511.406,245.996,512,256,512z"/>
<path style="fill:#BBBEBF;" d="M171.479,252.342c0,0,1.444-24.883,33.168-43.495C204.647,208.847,202.43,241.907,171.479,252.342z"
	/>
<path style="fill:#E0E2E2;" d="M176.584,100.319L176.584,100.319c-1.146,1.303-3.149,1.431-4.452,0.286l-11.345-9.977
	c-1.303-1.146-1.431-3.149-0.286-4.452l0,0c1.146-1.303,3.149-1.431,4.452-0.286l11.345,9.977
	C177.601,97.013,177.73,99.016,176.584,100.319z"/>
<path style="fill:#BFA993;" d="M166.831,86.078v3.818v8.301v3.818v7.652v3.818v15.107v3.818c0,4.126,3.344,7.471,7.471,7.471
	c4.126,0,7.471-3.344,7.471-7.471v-3.818v-15.107v-3.818v-7.652v-3.818v-8.301v-3.818H166.831z"/>
<polygon style="fill:#D8CCBC;" points="174.302,75.62 152.428,75.62 166.831,86.079 174.302,86.079 181.772,86.079 196.175,75.62 
	"/>
<path style="fill:#E0E2E2;" d="M189.715,139.929c-0.983-4.538-1.092-9.252-0.062-13.78c0.669-2.939,0.852-5.991,0.846-8.507
	c-0.009-3.486-1.098-6.874-3.119-9.714c-3.672-5.157-9.802-10.274-10.837-6.825c-1.494,4.98,5.23,15.024,5.23,15.024v6.89v5.577
	v3.818v0.316h-0.016c-0.167,3.979-3.435,7.155-7.455,7.155c-1.815,0-3.478-0.648-4.772-1.724c0.583,7.735,4.772,12.665,4.772,12.665
	l9.546,97.326l23.408-27.268L189.715,139.929z"/>
<path style="fill:#CBD0D1;" d="M182.214,231.5l1.633,16.65l23.408-27.268l-2.608-12.036l0,0
	C204.647,208.847,196.703,222.642,182.214,231.5z"/>
<g>
	<path style="fill:#E0E2E2;" d="M178.556,110.446L178.556,110.446c-1.146,1.303-3.149,1.431-4.452,0.286l-11.345-9.977
		c-1.303-1.146-1.431-3.149-0.286-4.452l0,0c1.146-1.303,3.149-1.431,4.452-0.286l11.345,9.977
		C179.573,107.14,179.702,109.143,178.556,110.446z"/>
	<path style="fill:#E0E2E2;" d="M177.818,118.198L177.818,118.198c-1.146,1.303-3.149,1.431-4.452,0.286l-11.344-9.977
		c-1.303-1.146-1.431-3.149-0.286-4.452l0,0c1.146-1.303,3.149-1.431,4.452-0.286l11.345,9.977
		C178.835,114.892,178.964,116.895,177.818,118.198z"/>
	<path style="fill:#E0E2E2;" d="M176.769,125.676L176.769,125.676c-1.146,1.303-3.149,1.431-4.452,0.286l-11.344-9.977
		c-1.303-1.146-1.431-3.149-0.286-4.452l0,0c1.146-1.303,3.149-1.431,4.452-0.286l11.345,9.977
		C177.786,122.37,177.914,124.374,176.769,125.676z"/>
</g>
<path style="fill:#FCCB5B;" d="M159.915,51.382c0,0-5.545-5.971-5.545-15.344c0-15.369,15.108-20.846,17.798-34.471
	c0.314-1.589,3-2.125,4.343-0.875c8.389,7.81,26.223,28.202,12.985,50.69H159.915z"/>
<g>
	<path style="fill:#FBB659;" d="M186.724,12.575c-3.438-5.135-7.368-9.235-10.213-11.884c-1.343-1.25-4.029-0.713-4.343,0.875
		c-2.691,13.625-17.798,19.102-17.798,34.471c0,9.373,5.545,15.344,5.545,15.344h19.932c0,0-5.545-5.971-5.545-15.344
		C174.301,25.508,181.393,19.621,186.724,12.575z"/>
	<path style="fill:#FBB659;" d="M166.26,51.382c0,0-3.099-3.338-3.099-8.577c0-8.591,8.445-11.652,9.949-19.268
		c0.175-0.888,1.677-1.188,2.428-0.489c4.689,4.365,14.658,15.764,7.258,28.334H166.26z"/>
</g>
<path style="fill:#F8A748;" d="M177.37,24.869c-0.659-0.696-1.283-1.309-1.833-1.821c-0.751-0.699-2.252-0.399-2.427,0.489
	c-1.504,7.616-9.949,10.678-9.949,19.268c0,5.239,3.099,8.577,3.099,8.577h13.587c0,0-5.545-5.971-5.545-15.344
	C174.301,31.645,175.545,28.066,177.37,24.869z"/>
<path style="fill:#BFA993;" d="M189.5,65.327h-30.396c-4.126,0-7.471-3.344-7.471-7.471c0-4.126,3.344-7.471,7.471-7.471H189.5
	c4.126,0,7.471,3.344,7.471,7.471C196.97,61.983,193.626,65.327,189.5,65.327z"/>
<path style="fill:#AA927D;" d="M194.555,57.856h-40.508c-4.905,0-8.882,3.976-8.882,8.882l0,0c0,4.905,3.977,8.882,8.882,8.882
	h40.508c4.905,0,8.882-3.976,8.882-8.882l0,0C203.437,61.833,199.461,57.856,194.555,57.856z"/>
<path style="fill:#99806D;" d="M173.598,66.738c0-4.905,3.976-8.882,8.882-8.882h-28.433c-4.905,0-8.882,3.976-8.882,8.882
	s3.977,8.882,8.882,8.882h28.433C177.575,75.62,173.598,71.643,173.598,66.738z"/>
<path style="fill:#FFFFFF;" d="M204.647,208.847c0.266,1.685-3.7,28.11-31.886,41.707c-1.806,0.871-2.647,2.983-1.982,4.875
	c4.211,11.974,17.612,54.033,17.612,104.408l79.126-75.495l-37.028-16.909c-2.656-1.213-4.729-3.42-5.772-6.147L204.647,208.847z"/>
<path style="fill:#E0E2E2;" d="M187.049,241.031c-3.886,3.491-8.583,6.772-14.287,9.523c-1.806,0.871-2.647,2.983-1.981,4.875
	c4.211,11.974,17.612,54.033,17.612,104.408l18.706-17.848C203.834,293.602,191.801,254.789,187.049,241.031z"/>
<path style="fill:#CBD0D1;" d="M185.839,400.676l-5.052,6.932c-3.433,4.711-4.646,10.683-3.322,16.36l10.598,45.437l99.875-181.786
	c-2.557-1.18-4.89-2.012-7.005-2.603L185.839,400.676z"/>
<path style="fill:#BBBEBF;" d="M212.141,368.686l-26.302,31.99l-5.052,6.932c-3.433,4.711-4.646,10.683-3.322,16.36l10.598,45.438
	l26.332-47.927c0.053-2.221,0.156-3.46,0.156-3.46C202.195,384.85,212.137,368.693,212.141,368.686z"/>
<path style="fill:#E0E2E2;" d="M267.518,284.341l-79.126,75.495c-11.891,18.428-2.553,40.84-2.553,40.84l95.094-115.659
	C272.34,282.614,267.518,284.341,267.518,284.341z"/>
<path style="fill:#CBD0D1;" d="M207.098,341.989L207.098,341.989l-18.706,17.848c-11.891,18.428-2.553,40.84-2.553,40.84
	l26.302-31.99l0,0C204.178,355.264,207.098,341.989,207.098,341.989z"/>
<path style="fill:#E0E2E2;" d="M287.938,287.62L184.422,471.554c-4.721,8.389-6.498,18.125-5.03,27.639
	c0.062,0.402,0.119,0.799,0.18,1.2c21.611,6.751,44.455,10.703,68.107,11.459c52.637-119.644,58.023-209.788,58.023-209.788
	C298.729,289.778,287.938,287.62,287.938,287.62z"/>
<path style="fill:#CBD0D1;" d="M214.551,418.018L214.551,418.018l-30.129,53.536c-4.721,8.389-6.498,18.125-5.03,27.639
	c0.062,0.402,0.119,0.799,0.18,1.2c21.611,6.751,44.455,10.703,68.107,11.459C209.838,474.011,214.551,418.018,214.551,418.018z"/>
<path style="fill:#E0E2E2;" d="M305.702,302.063L281.21,510.764c19.287-1.885,37.944-5.912,55.735-11.837L305.702,302.063z"/>
<g>
	<path style="fill:#FFFFFF;" d="M305.702,302.063l12.506,35.163c1.159,3.259,3.184,6.141,5.858,8.336l11.44,9.389l-16.533,30.732
		L305.702,302.063z"/>
	<path style="fill:#FFFFFF;" d="M368.142,406.177c0,0-21.751,80.028-39.108,42.908l-4.949-31.186L368.142,406.177z"/>
</g>
<path style="fill:#CBD0D1;" d="M368.142,406.177l-33.305,8.861c-0.558,11.754-0.327,32.296,6.859,43.348
	C355.436,452.925,368.142,406.177,368.142,406.177z"/>
<g>
	<path style="fill:#BBBEBF;" d="M347.014,411.799l-12.177,3.24c-0.558,11.754-0.327,32.296,6.859,43.348
		c0.082-0.033,0.165-0.074,0.247-0.11C340.754,443.082,343.827,425.271,347.014,411.799z"/>
	<path style="fill:#BBBEBF;" d="M342.677,341.622l-23.704,44.062l5.113,32.216l20.433,9.999c4.586,3.263,10.995,1.766,13.66-3.191
		l30.431-54.873c2.246-4.177,1.07-9.371-2.756-12.173l-35.383-17.803C347.876,337.958,344.2,338.79,342.677,341.622z"/>
</g>
<path style="fill:#A4A5A5;" d="M360.724,349.686c0.73-1.356,1.77-2.418,2.976-3.172l-13.229-6.656
	c-2.595-1.9-6.27-1.068-7.793,1.764l-23.705,44.061l5.1,32.132L360.724,349.686z"/>
<g>
	<path style="fill:#E0E2E2;" d="M381.632,397.276c1.248-1.753,0.835-4.207-0.917-5.455l-10.539-7.505
		c-1.752-1.248-4.207-0.835-5.455,0.917l0,0c-1.248,1.752-0.835,4.207,0.917,5.455l2.142,1.526l8.397,5.98
		C377.929,399.441,380.384,399.028,381.632,397.276z"/>
	<path style="fill:#E0E2E2;" d="M379.638,400.659l-0.821-0.585l0,0l-12.997-9.255c-1.752-1.248-4.207-0.835-5.455,0.917
		c-1.248,1.753-0.835,4.207,0.917,5.455l0.821,0.585l0,0l12.997,9.256c1.753,1.248,4.208,0.835,5.455-0.917
		C381.804,404.361,381.391,401.907,379.638,400.659z"/>
	<path style="fill:#E0E2E2;" d="M376.018,412.487L376.018,412.487c-1.248,1.753-3.703,2.165-5.455,0.917l-12.997-9.256
		c-1.752-1.248-2.165-3.703-0.917-5.455l0,0c1.248-1.752,3.703-2.165,5.455-0.917l12.997,9.256
		C376.853,408.279,377.266,410.734,376.018,412.487z"/>
	<path style="fill:#E0E2E2;" d="M370.646,418.292c1.248-1.753,0.835-4.207-0.917-5.455l-10.642-7.578
		c-1.752-1.248-4.207-0.835-5.455,0.917l0,0c-1.248,1.752-0.835,4.207,0.917,5.455l4.224,3.008l6.418,4.57
		C366.943,420.457,369.398,420.045,370.646,418.292z"/>
</g>
<path style="fill:#CBD0D1;" d="M254.971,161.999c-0.254-0.032-0.528,0.102-0.593,0.415l-6.076,29.548l5.548,2.75
	c0.353,0.175,0.737,0.249,1.12,0.238v-32.951H254.971z"/>
<g>
</g>
<g>
</g>
<g>
</g>
<g>
</g>
<g>
</g>
<g>
</g>
<g>
</g>
<g>
</g>
<g>
</g>
<g>
</g>
<g>
</g>
<g>
</g>
<g>
</g>
<g>
</g>
<g>
</g>
</svg>
